PathFileType	4	(X/Y/Z)	C:\Users\WrightLab\Desktop\Jo\P2_Trial30.trc
DataRate	CameraRate	NumFrames	NumMarkers	Units	OrigDataRate	OrigDataStartFrame	OrigNumFrames
100.00	100.00	       9	19	mm	100.00	222	       591
Frame#	Time	Headset_Front			Headset_Back			Headset_Left			Headset_Right			Left_Shoulder			Right_Shoulder			Sternum			C7			Left Elbow			Right Elbow			Left Wrist			Right Wrist			Left ASIS			Right ASIS			S2			Left Knee			Right Knee			Left Ankle			Right Ankle			
		X1	Y1	Z1	X2	Y2	Z2	X3	Y3	Z3	X4	Y4	Z4	X5	Y5	Z5	X6	Y6	Z6	X7	Y7	Z7	X8	Y8	Z8	X9	Y9	Z9	X10	Y10	Z10	X11	Y11	Z11	X12	Y12	Z12	X13	Y13	Z13	X14	Y14	Z14	X15	Y15	Z15	X16	Y16	Z16	X17	Y17	Z17	X18	Y18	Z18	X19	Y19	Z19	

222	2.210	-715.21112	1492.57593	205.99504	-860.50433	1688.25757	13.81571	-714.39087	1588.63989	20.62244	-845.64685	1566.13831	209.92320	-735.46887	1438.75647	-52.63146	-1005.03082	1442.07654	137.45563	-836.44257	1324.49683	96.78511	-946.97894	1435.18628	-39.93011	-679.51495	1132.96118	-158.29723	-1155.29712	1125.82678	130.88351	-562.78564	1120.83618	-2.25781	-1201.52271	877.35297	147.39775	-768.73828	1032.86768	87.07697	-883.88269	1006.45538	151.02415	-934.73639	941.18658	-111.96288	-700.72467	451.36374	-25.97942	-1021.34143	543.09991	187.03358	-744.58331	147.78329	-178.73793	-918.79510	137.01591	314.17947	
223	2.220	-711.37329	1493.21094	210.26479	-858.15527	1688.64832	21.14640	-712.17249	1589.58105	26.26630	-841.48157	1566.33435	216.63382	-736.64960	1440.57507	-48.28034	-1001.34229	1443.19910	146.80481	-832.34534	1324.41211	104.10088	-947.32739	1437.01294	-31.87979	-682.79810	1135.28003	-157.24368	-1152.73425	1127.96948	145.02367				-1200.27466	879.18304	164.17567	-767.11969	1033.16650	91.57695	-881.53064	1006.95605	156.50191	-936.75842	943.63910	-105.98431	-698.14435	454.97687	-11.57820	-1021.47827	545.15887	195.31236	-748.27979	156.17390	-165.11282	-916.59943	136.17886	311.18561	
224	2.230	-705.64453	1496.86768	224.45174	-855.91394	1689.94336	28.13555	-710.33801	1590.30176	31.16886	-836.62579	1567.43298	223.77669	-737.17896	1441.19995	-44.59822	-997.43408	1444.45605	156.76532	-829.77179	1326.03503	109.48055	-946.85706	1438.02893	-22.85687	-686.02618	1136.03931	-155.37929	-1150.22253	1129.50342	159.56555	-561.17053	1125.89514	-27.74393	-1198.13232	881.90710	182.75569	-764.26984	1035.37183	94.81686	-878.69360	1008.41840	161.49104	-937.62891	945.02441	-99.35329	-693.10455	461.28738	1.87706	-1020.63055	548.43915	204.23297	-752.34528	164.81078	-150.35709	-914.33252	134.90715	307.58298	
225	2.240	-703.24316	1493.91296	219.05048	-852.59198	1691.72229	35.07334	-708.48193	1591.00769	35.88681	-833.00555	1568.31958	229.70355	-737.41077	1442.78101	-40.84779	-993.47168	1445.74133	165.49962	-825.49182	1326.71631	115.27287	-947.07605	1440.14478	-16.25799	-688.74866	1137.76660	-153.91882	-1147.30383	1131.42322	174.37852				-1194.71362	883.24884	203.30000	-763.25427	1037.54333	99.88737	-874.46405	1010.15344	168.41910	-938.43158	946.70685	-93.63306	-686.53821	467.81198	15.86634	-1019.02203	551.27582	211.58376	-755.16870	173.46426	-133.73271	-914.94958	130.48459	294.33081	
226	2.250	-699.14508	1493.61377	222.52719	-850.63623	1692.82397	41.33253	-706.76666	1591.41602	40.05649	-828.52405	1568.85583	235.65224	-738.01965	1443.31006	-37.71578	-989.77069	1446.87354	174.22418	-822.36285	1326.39441	120.01265	-946.49268	1440.57898	-6.82817	-692.11682	1138.80469	-151.10861	-1145.00989	1133.62280	188.35851	-561.26611	1140.23706	-71.62964	-1191.11047	885.02606	222.66650	-759.93201	1039.56433	103.82498	-871.28754	1012.28540	173.41328	-938.90533	948.84735	-86.86711	-679.58478	473.35120	28.87495	-1018.94232	553.03247	220.99481	-756.89429	182.95380	-117.48206	-914.26196	129.19421	289.59677	
227	2.260	-695.78485	1493.46606	227.44748	-847.51990	1693.67944	47.32867	-704.35760	1591.16370	45.41321	-824.58948	1569.72607	241.12167	-738.34705	1444.47815	-33.50021	-985.55707	1445.91553	182.10068	-820.38434	1327.60327	125.42352	-946.29675	1441.62463	-0.23042	-695.40765	1140.08411	-148.31427	-1141.18201	1134.65796	203.30681	-562.66064	1128.57300	-34.62835	-1187.07336	886.85229	242.23598	-757.80066	1041.00598	109.49341	-868.40948	1013.51953	178.33498	-939.58795	950.57550	-80.80742	-672.55695	478.60001	39.81274	-1016.94257	553.20740	226.55891	-758.64740	191.70486	-101.50089	-913.63721	127.80978	283.70166	
228	2.270	-691.55035	1492.43323	230.21037	-843.78571	1694.76782	55.25223	-701.62836	1590.53723	50.15322	-820.19366	1570.24414	246.57791	-738.17108	1444.57178	-29.27917	-981.36890	1446.57800	190.61801	-817.62335	1328.02112	130.53862	-945.72742	1442.11877	9.17300	-698.07196	1141.06787	-145.93976	-1137.54468	1136.25623	218.81233				-1184.00586	889.88617	259.62167	-756.02557	1042.28491	111.53658	-864.81256	1015.77625	183.57822	-939.93262	952.09198	-74.55359	-664.89264	482.52264	50.88175	-1015.94208	553.66412	229.40947	-759.93146	199.88184	-83.65145	-913.73541	127.00565	279.86490	
229	2.280	-687.03961	1492.17114	235.49767	-839.95776	1695.38428	62.02577	-699.70697	1590.38696	54.59557	-815.44147	1570.82056	253.11411	-738.38953	1446.04578	-25.69583	-977.18134	1447.06934	198.60681	-814.92548	1328.92456	136.40324	-945.31927	1443.47742	15.75588	-700.19812	1141.63330	-143.34230	-1133.56653	1137.89368	232.44489	-564.84814	1130.68689	-34.20755	-1179.81396	891.74890	279.87320	-753.32806	1044.63379	115.60225	-860.83167	1016.81378	187.70206	-940.26080	953.29773	-68.44105	-655.85309	486.81702	61.06211	-1014.98499	552.47784	232.93340	-759.10443	207.12108	-65.36935	-913.23010	124.98255	274.12332	
230	2.290	-683.25452	1491.70117	238.50287	-838.95929	1696.01318	66.96588	-697.70490	1590.29675	58.24612	-810.11035	1571.02246	258.84875	-738.55078	1446.92517	-22.04639	-973.15143	1447.74231	205.99858	-811.12769	1329.64307	140.80077	-943.71198	1443.47351	23.79143	-703.06000	1143.03943	-140.79181	-1129.59570	1139.39001	246.26556	-565.25061	1130.91626	-33.88963	-1175.15210	893.86694	297.61307	-751.52411	1045.42529	119.41002	-857.44604	1017.73505	194.11282	-940.23730	954.37677	-62.13397	-648.09656	490.19858	69.70238	-1013.16107	550.11810	236.38998	-758.09723	213.57280	-49.56713	-912.62567	122.07601	267.58502	
